<svg width="523" height="507" viewBox="0 0 523 507" fill="none" xmlns="http://www.w3.org/2000/svg">
<path d="M258.047 94.3521L163.695 0V154.601L258.047 248.953V94.3521Z" fill="#FE5000" fill-opacity="0.06"/>
<path d="M258.047 412.648L163.695 507V352.399L258.047 258.047V412.648Z" fill="#FE5000" fill-opacity="0.06"/>
<path d="M267.142 94.3521L361.494 0V154.601L267.142 248.953V94.3521Z" fill="#FE5000" fill-opacity="0.06"/>
<path d="M267.142 412.648L361.494 507V352.399L267.142 258.047V412.648Z" fill="#FE5000" fill-opacity="0.06"/>
<path d="M368.314 154.601L273.962 248.953L428.563 248.953L522.915 154.601L368.314 154.601Z" fill="#FE5000" fill-opacity="0.06"/>
<path d="M368.314 352.399L273.962 258.047L428.563 258.047L522.915 352.399L368.314 352.399Z" fill="#FE5000" fill-opacity="0.06"/>
<path d="M154.601 154.601L248.953 248.953L94.3522 248.953L9.02926e-05 154.601L154.601 154.601Z" fill="#FE5000" fill-opacity="0.06"/>
<path d="M154.601 352.399L248.953 258.047L94.3522 258.047L9.02926e-05 352.399L154.601 352.399Z" fill="#FE5000" fill-opacity="0.06"/>
</svg>
