<svg width="233" height="53" viewBox="0 0 233 53" fill="none" xmlns="http://www.w3.org/2000/svg">
<g clip-path="url(#clip0_411_1118)">
<path d="M52.302 30.6338H21.5767C17.0609 30.6352 12.6691 32.104 9.06913 34.8171C5.46914 37.5301 2.85795 41.3389 1.63264 45.6642C1.13637 47.4463 0.755186 48.6703 0 51.254H56.4016C60.9186 51.2542 65.3121 49.7861 68.9135 47.0729C72.515 44.3597 75.1272 40.5501 76.3529 36.2237C76.8491 34.4486 77.2375 33.2247 77.9855 30.6338H52.302Z" fill="white"/>
<path d="M25.6835 2.06934H56.4016C60.9186 2.06915 65.3121 3.53732 68.9135 6.25048C72.515 8.96364 75.1272 12.7733 76.3529 17.0997C76.8491 18.8747 77.2375 20.0986 77.9855 22.6824H21.5767C17.0606 22.6822 12.6682 21.2138 9.06802 18.5006C5.4678 15.7874 2.85689 11.9779 1.63264 7.65205C1.13637 5.87703 0.755186 4.65313 0 2.06934H25.6835Z" fill="white"/>
<path d="M90.421 26.6684L90.5864 26.0744L93.1469 17.1062C94.3853 12.7901 97.005 8.99403 100.608 6.29426C104.212 3.5945 108.602 2.13853 113.113 2.14744C114.968 2.14744 116.256 2.14744 118.967 2.10449L110.523 31.7358L110.358 32.3227L109.236 36.2449C108.01 40.5755 105.395 44.3884 101.789 47.1021C98.183 49.8158 93.7841 51.2814 89.2631 51.2753C87.4075 51.2753 86.1272 51.2753 83.4158 51.3183L90.421 26.6684Z" fill="#EE5524"/>
<path d="M120.333 26.6684L120.506 26.0744L123.059 17.1062C124.298 12.789 126.919 8.99198 130.524 6.2921C134.129 3.59222 138.52 2.13698 143.032 2.14744C144.888 2.14744 146.175 2.14744 148.879 2.10449L140.436 31.7358L140.27 32.3227L139.148 36.2449C137.923 40.5744 135.309 44.3864 131.704 47.1C128.1 49.8135 123.702 51.2798 119.183 51.2753C117.327 51.2753 116.04 51.2753 113.328 51.3183L120.333 26.6684Z" fill="#EE5524"/>
<path d="M154.346 26.6684L154.511 26.0744L157.064 17.1062C158.303 12.789 160.924 8.99198 164.529 6.2921C168.134 3.59222 172.525 2.13698 177.037 2.14744C178.893 2.14744 180.18 2.14744 182.884 2.10449L174.441 31.7358L174.275 32.3227L173.16 36.2449C171.933 40.5743 169.317 44.3859 165.711 47.0992C162.106 49.8126 157.708 51.279 153.188 51.2753C151.332 51.2753 150.045 51.2753 147.34 51.3183L154.346 26.6684Z" fill="white"/>
<path d="M212.437 29.403L208.331 26.039L233.029 7.81649C230.871 6.18462 229.835 5.4331 228.368 4.30224C224.793 1.5552 220.414 0.0455168 215.897 0.00288161C211.38 -0.0397536 206.973 1.38699 203.346 4.06605L195.823 9.62014L195.334 9.978L174.678 25.2088C174.923 25.402 175.153 25.5738 175.397 25.7384L199.297 45.3209L199.772 45.7074L202.929 48.2983C206.416 51.1551 210.745 52.8003 215.258 52.9838C219.771 53.1672 224.22 51.8789 227.929 49.3147C229.454 48.2625 230.533 47.5611 232.763 46.0366L212.89 29.7895L212.437 29.403Z" fill="white"/>
</g>
<defs>
<clipPath id="clip0_411_1118">
<rect width="233" height="53" fill="white"/>
</clipPath>
</defs>
</svg>
