<?xml version="1.0" encoding="utf-8"?>
<!-- Generator: Adobe Illustrator 24.2.3, SVG Export Plug-In . SVG Version: 6.00 Build 0)  -->
<svg version="1.1" id="Layer_1" xmlns="http://www.w3.org/2000/svg" xmlns:xlink="http://www.w3.org/1999/xlink" x="0px" y="0px"
	 viewBox="0 0 451 288" style="enable-background:new 0 0 451 288;" xml:space="preserve">
<style type="text/css">
	.st0{fill:#3B3E42;}
	.st1{fill:#EF5323;}
</style>
<g>
	<g>
		<path class="st0" d="M82,196.92c-0.08-0.07-0.12-0.17-0.12-0.28v-4.4c0-0.11,0.04-0.2,0.12-0.27c0.08-0.08,0.17-0.12,0.27-0.12
			h0.22c0.42,0,0.71-0.35,0.85-1.06c0.14-0.71,0.22-1.6,0.22-2.7v-2.76c0-0.1,0.04-0.2,0.12-0.27s0.17-0.12,0.27-0.12h7.74
			c0.11,0,0.2,0.04,0.27,0.12s0.12,0.17,0.12,0.27v6.52h0.65c0.11,0,0.2,0.04,0.27,0.12s0.12,0.17,0.12,0.27v4.4
			c0,0.11-0.04,0.2-0.12,0.27c-0.08,0.08-0.17,0.11-0.27,0.11H89.9c-0.11,0-0.2-0.04-0.27-0.11c-0.08-0.08-0.12-0.17-0.12-0.27
			v-1.63h-4.03v1.63c0,0.11-0.04,0.2-0.12,0.27c-0.08,0.08-0.17,0.11-0.27,0.11h-2.82C82.17,197.03,82.08,196.99,82,196.92z
			 M88.47,191.85v-3.74h-1.47v0.45c0,1.41-0.14,2.51-0.42,3.29H88.47z"/>
		<path class="st0" d="M99.56,194.7c-0.68-0.3-1.18-0.68-1.49-1.12c-0.31-0.45-0.5-0.91-0.55-1.4c-0.01-0.09,0.02-0.16,0.09-0.22
			c0.07-0.06,0.14-0.09,0.23-0.09h2.82c0.12,0,0.21,0.02,0.27,0.06c0.07,0.04,0.14,0.1,0.22,0.17c0.1,0.1,0.22,0.17,0.37,0.22
			c0.15,0.05,0.35,0.07,0.6,0.07c0.37,0,0.64-0.05,0.81-0.14c0.16-0.09,0.24-0.23,0.24-0.41c0-0.2-0.08-0.35-0.24-0.43
			c-0.16-0.09-0.42-0.13-0.76-0.13h-1.08c-0.11,0-0.2-0.04-0.27-0.13c-0.08-0.09-0.12-0.18-0.12-0.29v-1.73
			c0-0.11,0.04-0.2,0.12-0.29c0.08-0.09,0.17-0.13,0.27-0.13h1.08c0.53,0,0.79-0.17,0.79-0.52c0-0.39-0.28-0.59-0.83-0.59
			c-0.25,0-0.45,0.03-0.6,0.09c-0.15,0.06-0.25,0.13-0.29,0.19c-0.07,0.09-0.13,0.15-0.19,0.18s-0.15,0.05-0.27,0.05h-2.85
			c-0.09,0-0.16-0.03-0.23-0.09c-0.07-0.06-0.1-0.14-0.09-0.22c0.06-0.49,0.23-0.96,0.53-1.41s0.78-0.83,1.45-1.14
			c0.67-0.31,1.54-0.46,2.62-0.46c0.85,0,1.62,0.13,2.29,0.4c0.67,0.26,1.2,0.63,1.58,1.09c0.38,0.46,0.57,0.97,0.57,1.52
			c0,0.36-0.08,0.72-0.24,1.06s-0.46,0.63-0.88,0.86c0.51,0.25,0.87,0.58,1.08,1c0.21,0.42,0.32,0.85,0.32,1.29
			c0,0.63-0.19,1.19-0.57,1.66c-0.38,0.47-0.92,0.84-1.63,1.1c-0.71,0.26-1.54,0.39-2.5,0.39
			C101.12,195.16,100.25,195.01,99.56,194.7z"/>
		<path class="st0" d="M111.69,194.9c-0.08-0.08-0.12-0.17-0.12-0.27v-9.29c0-0.1,0.04-0.2,0.12-0.27s0.17-0.12,0.27-0.12h7.38
			c0.11,0,0.2,0.04,0.27,0.12s0.12,0.17,0.12,0.27v2.03c0,0.11-0.04,0.2-0.12,0.27c-0.08,0.08-0.17,0.12-0.27,0.12h-4.32v0.91h4
			c0.1,0,0.2,0.04,0.27,0.11c0.08,0.08,0.12,0.17,0.12,0.27v1.87c0,0.11-0.04,0.2-0.12,0.27s-0.17,0.11-0.27,0.11h-4v0.91h4.43
			c0.11,0,0.2,0.04,0.27,0.12s0.12,0.17,0.12,0.27v2.03c0,0.11-0.04,0.2-0.12,0.27c-0.08,0.08-0.17,0.12-0.27,0.12h-7.49
			C111.86,195.01,111.77,194.97,111.69,194.9z"/>
		<path class="st0" d="M131.73,196.91c-0.08-0.08-0.12-0.17-0.12-0.27v-1.63h-6.57c-0.11,0-0.2-0.04-0.27-0.12
			c-0.08-0.08-0.12-0.17-0.12-0.27v-9.29c0-0.11,0.04-0.21,0.12-0.28s0.17-0.11,0.27-0.11h2.82c0.11,0,0.2,0.04,0.27,0.12
			c0.08,0.08,0.11,0.17,0.11,0.27v6.52h2.33v-6.52c0-0.1,0.04-0.2,0.11-0.27s0.17-0.12,0.27-0.12h2.82c0.11,0,0.2,0.04,0.27,0.12
			s0.12,0.17,0.12,0.27v6.52h0.65c0.11,0,0.2,0.04,0.27,0.12s0.12,0.17,0.12,0.27v4.4c0,0.11-0.04,0.2-0.12,0.27
			c-0.08,0.08-0.17,0.11-0.27,0.11H132C131.9,197.03,131.81,196.99,131.73,196.91z"/>
		<path class="st0" d="M140.03,194.9c-0.08-0.08-0.12-0.17-0.12-0.27v-9.29c0-0.1,0.04-0.2,0.12-0.27s0.17-0.12,0.27-0.12h2.93
			c0.1,0,0.2,0.04,0.27,0.12s0.12,0.17,0.12,0.27v9.29c0,0.11-0.04,0.2-0.12,0.27c-0.08,0.08-0.17,0.12-0.27,0.12h-2.93
			C140.2,195.01,140.11,194.97,140.03,194.9z"/>
		<path class="st0" d="M148.62,194.9c-0.08-0.08-0.12-0.17-0.12-0.27v-2.5c0-0.11,0.04-0.2,0.12-0.27s0.17-0.12,0.27-0.12h2.5
			c0.11,0,0.2,0.04,0.27,0.12s0.12,0.17,0.12,0.27v2.5c0,0.11-0.04,0.2-0.12,0.27c-0.08,0.08-0.17,0.12-0.27,0.12h-2.5
			C148.78,195.01,148.69,194.97,148.62,194.9z"/>
		<path class="st0" d="M162.93,194.9c-0.08-0.07-0.12-0.17-0.12-0.28v-9.29c0-0.1,0.04-0.2,0.12-0.27s0.17-0.12,0.27-0.12h2.82
			c0.11,0,0.2,0.04,0.27,0.12c0.08,0.08,0.11,0.17,0.11,0.27v3.02h2.33v-3.02c0-0.1,0.04-0.2,0.11-0.27s0.17-0.12,0.27-0.12h2.82
			c0.11,0,0.2,0.04,0.27,0.12s0.12,0.17,0.12,0.27v9.29c0,0.11-0.04,0.2-0.12,0.27c-0.08,0.08-0.17,0.12-0.27,0.12h-2.82
			c-0.11,0-0.2-0.04-0.27-0.12c-0.08-0.08-0.11-0.17-0.11-0.27v-3.11h-2.33v3.11c0,0.11-0.04,0.2-0.11,0.27
			c-0.08,0.08-0.17,0.12-0.27,0.12h-2.82C163.1,195.01,163.01,194.98,162.93,194.9z"/>
		<path class="st0" d="M176.7,194.92c-0.06-0.06-0.09-0.14-0.09-0.22c0-0.04,0-0.07,0.01-0.1l3.21-9.18
			c0.04-0.12,0.11-0.23,0.22-0.33s0.25-0.14,0.43-0.14h3.12c0.18,0,0.33,0.05,0.43,0.14s0.18,0.21,0.22,0.33l3.21,9.18
			c0.01,0.03,0.01,0.06,0.01,0.1c0,0.09-0.03,0.16-0.09,0.22c-0.06,0.06-0.14,0.09-0.22,0.09h-2.66c-0.29,0-0.47-0.12-0.56-0.36
			l-0.35-0.95h-3.09l-0.35,0.95c-0.09,0.24-0.27,0.36-0.56,0.36h-2.66C176.84,195.01,176.76,194.98,176.7,194.92z M181.23,190.9
			h1.63l-0.82-2.68L181.23,190.9z"/>
		<path class="st0" d="M198.82,196.91c-0.08-0.08-0.12-0.17-0.12-0.27v-1.63h-6.57c-0.11,0-0.2-0.04-0.27-0.12
			c-0.08-0.08-0.12-0.17-0.12-0.27v-9.29c0-0.11,0.04-0.21,0.12-0.28s0.17-0.11,0.27-0.11h2.82c0.11,0,0.2,0.04,0.27,0.12
			c0.08,0.08,0.11,0.17,0.11,0.27v6.52h2.33v-6.52c0-0.1,0.04-0.2,0.11-0.27s0.17-0.12,0.27-0.12h2.82c0.11,0,0.2,0.04,0.27,0.12
			s0.12,0.17,0.12,0.27v6.52h0.65c0.11,0,0.2,0.04,0.27,0.12s0.12,0.17,0.12,0.27v4.4c0,0.11-0.04,0.2-0.12,0.27
			c-0.08,0.08-0.17,0.11-0.27,0.11h-2.82C198.99,197.03,198.9,196.99,198.82,196.91z"/>
		<path class="st0" d="M207.12,194.9c-0.08-0.08-0.12-0.17-0.12-0.27v-9.29c0-0.1,0.04-0.2,0.12-0.27s0.17-0.12,0.27-0.12h2.82
			c0.11,0,0.2,0.04,0.27,0.12c0.08,0.08,0.11,0.17,0.11,0.27v2.75h0.94c1.42,0,2.51,0.28,3.27,0.85c0.76,0.57,1.14,1.42,1.14,2.56
			c0,1.14-0.38,2.01-1.15,2.62s-1.85,0.91-3.25,0.91h-4.14C207.29,195.01,207.19,194.97,207.12,194.9z M211.53,192.34
			c0.22,0,0.39-0.08,0.5-0.23c0.11-0.15,0.17-0.35,0.17-0.59c0-0.25-0.06-0.44-0.19-0.58c-0.13-0.13-0.29-0.2-0.47-0.2h-0.94v1.6
			H211.53z M216.9,194.9c-0.08-0.08-0.12-0.17-0.12-0.27v-9.29c0-0.1,0.04-0.2,0.12-0.27c0.08-0.08,0.17-0.12,0.27-0.12h2.93
			c0.11,0,0.2,0.04,0.27,0.12s0.12,0.17,0.12,0.27v9.29c0,0.11-0.04,0.2-0.12,0.27c-0.08,0.08-0.17,0.12-0.27,0.12h-2.93
			C217.07,195.01,216.98,194.97,216.9,194.9z"/>
		<path class="st0" d="M234.46,185.06c0.08,0.08,0.12,0.17,0.12,0.27v9.29c0,0.11-0.04,0.2-0.12,0.27
			c-0.08,0.08-0.17,0.12-0.27,0.12h-2.82c-0.11,0-0.2-0.04-0.27-0.12c-0.08-0.08-0.11-0.17-0.11-0.27v-2.75h-0.59l-1.24,2.75
			c-0.04,0.11-0.11,0.2-0.22,0.27c-0.11,0.08-0.24,0.12-0.4,0.12h-2.95c-0.09,0-0.16-0.03-0.22-0.09c-0.06-0.06-0.09-0.14-0.09-0.22
			c0-0.05,0.01-0.1,0.04-0.16l1.78-3.28c-0.49-0.31-0.87-0.7-1.15-1.19c-0.28-0.48-0.42-1.03-0.42-1.63c0-1.09,0.39-1.95,1.17-2.57
			c0.78-0.62,1.86-0.93,3.24-0.93h4.26C234.3,184.94,234.39,184.98,234.46,185.06z M230.98,187.62h-1.05
			c-0.21,0-0.37,0.08-0.49,0.23c-0.11,0.15-0.17,0.34-0.17,0.56c0,0.21,0.06,0.39,0.18,0.52c0.12,0.14,0.28,0.21,0.48,0.21h1.05
			V187.62z"/>
		<path class="st0" d="M239.57,194.9c-0.08-0.08-0.12-0.17-0.12-0.27v-2.5c0-0.11,0.04-0.2,0.12-0.27s0.17-0.12,0.27-0.12h2.5
			c0.11,0,0.2,0.04,0.27,0.12s0.12,0.17,0.12,0.27v2.5c0,0.11-0.04,0.2-0.12,0.27c-0.08,0.08-0.17,0.12-0.27,0.12h-2.5
			C239.74,195.01,239.65,194.97,239.57,194.9z"/>
		<path class="st0" d="M263.66,194.7c0,0.09-0.03,0.16-0.09,0.22c-0.06,0.06-0.14,0.09-0.22,0.09h-3.28c-0.16,0-0.29-0.03-0.37-0.1
			s-0.16-0.14-0.22-0.23l-1.77-3.16h-0.34v3.11c0,0.11-0.04,0.2-0.12,0.27c-0.08,0.08-0.17,0.12-0.27,0.12h-2.82
			c-0.11,0-0.2-0.04-0.27-0.11c-0.08-0.07-0.12-0.17-0.12-0.28v-9.29c0-0.1,0.04-0.2,0.12-0.27c0.08-0.08,0.17-0.12,0.27-0.12h2.82
			c0.11,0,0.2,0.04,0.27,0.12c0.08,0.08,0.12,0.17,0.12,0.27v3.02h0.23l1.75-3.09c0.12-0.21,0.31-0.32,0.58-0.32h3.18
			c0.09,0,0.16,0.03,0.22,0.09s0.09,0.14,0.09,0.22c0,0.06-0.01,0.11-0.04,0.16l-2.59,4.34l2.83,4.78
			C263.65,194.58,263.66,194.63,263.66,194.7z"/>
		<path class="st0" d="M277.31,185.04c0.06,0.06,0.09,0.13,0.09,0.21c0,0.09-0.03,0.2-0.09,0.33l-2.79,6.5
			c-0.34,0.81-0.68,1.41-1.01,1.82c-0.33,0.41-0.74,0.7-1.23,0.86c-0.49,0.17-1.15,0.25-1.97,0.25h-0.93c-0.11,0-0.2-0.04-0.27-0.12
			c-0.08-0.08-0.12-0.17-0.12-0.27v-2.3c0-0.11,0.04-0.2,0.12-0.27c0.08-0.08,0.17-0.11,0.27-0.11h0.59c0.33,0,0.58-0.06,0.76-0.19
			l-3.34-6.36c-0.02-0.04-0.03-0.07-0.03-0.1c0-0.09,0.04-0.17,0.11-0.24c0.08-0.07,0.16-0.11,0.26-0.11h3.01
			c0.12,0,0.21,0.03,0.27,0.09s0.13,0.14,0.19,0.26l1.31,2.83l1.24-2.83c0.09-0.23,0.25-0.35,0.49-0.35h2.83
			C277.17,184.94,277.25,184.97,277.31,185.04z"/>
		<path class="st0" d="M287.63,194.9c-0.08-0.08-0.12-0.17-0.12-0.27v-6.52h-1.9v0.45c0,1.69-0.1,2.98-0.31,3.86
			c-0.21,0.89-0.63,1.54-1.27,1.96c-0.64,0.42-1.61,0.63-2.93,0.63c-0.11,0-0.2-0.04-0.28-0.12c-0.08-0.08-0.12-0.17-0.12-0.27
			v-2.27c0-0.21,0.13-0.34,0.39-0.39c0.44-0.09,0.73-0.47,0.86-1.15c0.13-0.68,0.2-1.59,0.2-2.72v-2.76c0-0.1,0.04-0.2,0.12-0.27
			s0.17-0.12,0.27-0.12h8.17c0.11,0,0.2,0.04,0.27,0.12c0.08,0.08,0.12,0.17,0.12,0.27v9.29c0,0.11-0.04,0.2-0.12,0.27
			c-0.08,0.08-0.17,0.12-0.27,0.12h-2.82C287.8,195.01,287.71,194.97,287.63,194.9z"/>
		<path class="st0" d="M296.29,194.9c-0.08-0.08-0.12-0.17-0.12-0.27v-9.29c0-0.1,0.04-0.2,0.12-0.27c0.08-0.08,0.17-0.12,0.27-0.12
			h2.82c0.11,0,0.2,0.04,0.27,0.12c0.08,0.08,0.12,0.17,0.12,0.27v2.75h0.93c1.42,0,2.51,0.28,3.27,0.85
			c0.76,0.57,1.14,1.42,1.14,2.56c0,1.14-0.38,2.01-1.15,2.62s-1.85,0.91-3.25,0.91h-4.14C296.46,195.01,296.36,194.97,296.29,194.9
			z M300.7,192.34c0.22,0,0.39-0.08,0.5-0.23s0.17-0.35,0.17-0.59c0-0.25-0.07-0.44-0.19-0.58c-0.13-0.13-0.29-0.2-0.47-0.2h-0.93
			v1.6H300.7z"/>
		<path class="st0" d="M312.14,194.9c-0.08-0.08-0.12-0.17-0.12-0.27v-6.59h-2.39c-0.11,0-0.2-0.04-0.27-0.12
			c-0.08-0.08-0.12-0.17-0.12-0.27v-2.32c0-0.1,0.04-0.2,0.12-0.27c0.08-0.08,0.17-0.12,0.27-0.12h8.43c0.11,0,0.2,0.04,0.27,0.12
			c0.08,0.08,0.12,0.17,0.12,0.27v2.32c0,0.11-0.04,0.2-0.12,0.27c-0.08,0.08-0.17,0.12-0.27,0.12h-2.39v6.59
			c0,0.11-0.04,0.2-0.12,0.27c-0.08,0.08-0.17,0.12-0.27,0.12h-2.88C312.31,195.01,312.22,194.97,312.14,194.9z"/>
		<path class="st0" d="M332.2,185.04c0.06,0.06,0.09,0.13,0.09,0.21c0,0.09-0.03,0.2-0.09,0.33l-2.79,6.5
			c-0.34,0.81-0.68,1.41-1.01,1.82c-0.33,0.41-0.74,0.7-1.23,0.86c-0.49,0.17-1.15,0.25-1.97,0.25h-0.93c-0.11,0-0.2-0.04-0.27-0.12
			c-0.08-0.08-0.12-0.17-0.12-0.27v-2.3c0-0.11,0.04-0.2,0.12-0.27c0.08-0.08,0.17-0.11,0.27-0.11h0.59c0.33,0,0.58-0.06,0.76-0.19
			l-3.34-6.36c-0.02-0.04-0.03-0.07-0.03-0.1c0-0.09,0.04-0.17,0.11-0.24c0.08-0.07,0.16-0.11,0.26-0.11h3.01
			c0.12,0,0.21,0.03,0.27,0.09s0.13,0.14,0.19,0.26l1.31,2.83l1.24-2.83c0.09-0.23,0.25-0.35,0.49-0.35h2.83
			C332.06,184.94,332.14,184.97,332.2,185.04z"/>
		<path class="st0" d="M336.65,194.9c-0.08-0.08-0.12-0.17-0.12-0.27v-9.29c0-0.1,0.04-0.2,0.12-0.27c0.08-0.08,0.17-0.12,0.27-0.12
			h4.36c1.34,0,2.4,0.3,3.17,0.89c0.77,0.59,1.16,1.47,1.16,2.63c0,1.15-0.38,2.01-1.15,2.57c-0.77,0.56-1.83,0.84-3.18,0.84h-1.01
			v2.75c0,0.11-0.04,0.2-0.12,0.27c-0.08,0.08-0.17,0.12-0.27,0.12h-2.96C336.82,195.01,336.73,194.97,336.65,194.9z M341.21,189.22
			c0.17,0,0.33-0.06,0.46-0.19c0.13-0.13,0.2-0.32,0.2-0.58c0-0.22-0.05-0.41-0.16-0.58c-0.11-0.16-0.27-0.24-0.5-0.24h-1.01v1.6
			H341.21z"/>
		<path class="st0" d="M349.46,194.92c-0.06-0.06-0.09-0.14-0.09-0.22c0-0.04,0-0.07,0.01-0.1l3.21-9.18
			c0.04-0.12,0.11-0.23,0.21-0.33s0.25-0.14,0.43-0.14h3.12c0.18,0,0.33,0.05,0.43,0.14c0.11,0.1,0.18,0.21,0.22,0.33l3.21,9.18
			c0.01,0.03,0.01,0.06,0.01,0.1c0,0.09-0.03,0.16-0.09,0.22c-0.06,0.06-0.14,0.09-0.22,0.09h-2.66c-0.29,0-0.47-0.12-0.56-0.36
			l-0.35-0.95h-3.09l-0.34,0.95c-0.09,0.24-0.27,0.36-0.56,0.36h-2.66C349.6,195.01,349.52,194.98,349.46,194.92z M353.98,190.9
			h1.63l-0.82-2.68L353.98,190.9z"/>
		<path class="st0" d="M364.43,194.9c-0.08-0.08-0.11-0.17-0.11-0.27v-2.5c0-0.11,0.04-0.2,0.11-0.27c0.08-0.08,0.17-0.12,0.27-0.12
			h2.5c0.11,0,0.2,0.04,0.27,0.12c0.08,0.08,0.12,0.17,0.12,0.27v2.5c0,0.11-0.04,0.2-0.12,0.27c-0.08,0.08-0.17,0.12-0.27,0.12
			h-2.5C364.59,195.01,364.5,194.97,364.43,194.9z"/>
	</g>
	<circle class="st0" cx="349.14" cy="107.75" r="14.65"/>
	<path class="st1" d="M185.98,129.58l0.25-0.87l3.77-13.3c3.82-13.49,16.12-22.28,29.48-22.25c2.74,0.01,4.64-0.04,8.63-0.06
		l-12.46,43.96l-0.25,0.87l-1.65,5.82c-3.82,13.49-16.12,22.28-29.48,22.25c-2.74-0.01-4.64,0.04-8.63,0.06L185.98,129.58z"/>
	<path class="st0" d="M127.86,135.46l-0.91,0l-13.83,0c-14.02,0-25.84,9.43-29.46,22.29c-0.74,2.64-1.31,4.45-2.42,8.29l45.69,0.01
		l0.91,0l6.05,0c14.02,0,25.84-9.43,29.46-22.29c0.74-2.64,1.31-4.45,2.42-8.29L127.86,135.46z"/>
	<path class="st0" d="M119.16,93.11l0.91,0l13.83-0.01c14.02-0.01,25.84,9.41,29.47,22.28c0.74,2.64,1.31,4.45,2.42,8.29
		l-45.69,0.03l-0.91,0l-6.05,0c-14.02,0.01-25.84-9.41-29.47-22.28c-0.74-2.64-1.31-4.45-2.42-8.29L119.16,93.11z"/>
	<path class="st1" d="M230.15,129.58l0.25-0.87l3.77-13.3c3.82-13.49,16.12-22.28,29.48-22.25c2.74,0.01,4.64-0.04,8.63-0.06
		l-12.46,43.96l-0.25,0.87l-1.65,5.82c-3.82,13.49-16.12,22.28-29.48,22.25c-2.74-0.01-4.64,0.04-8.63,0.06L230.15,129.58z"/>
	<path class="st0" d="M335.17,125.67l-0.64-0.64l-4.27-4.28c-3.71-3.72-8.15-6.29-12.86-7.69l5.66-19.96c-4,0.02-5.9,0.07-8.63,0.06
		c-13.36-0.03-25.66,8.76-29.48,22.25l-3.77,13.3l-0.25,0.87l-10.34,36.48c4-0.02,5.9-0.07,8.63-0.06
		c13.36,0.03,25.66-8.76,29.48-22.25l0.29-1.01l3.89,3.9l0.64,0.64l9.77,9.79c9.9,9.92,24.93,11.62,36.59,5.09
		c2.39-1.34,4.07-2.22,7.57-4.15L335.17,125.67z"/>
</g>
</svg>
