<svg width="25" height="22" viewBox="0 0 25 22" fill="none" xmlns="http://www.w3.org/2000/svg">
<g id="&#208;&#184;&#208;&#189;&#209;&#129;&#209;&#130;">
<g id="Group">
<path id="Vector" d="M6.18208 0.0035157C6.17817 0.00689834 6.03359 0.0238115 5.86164 0.0390334C4.56819 0.157426 3.44471 0.551503 2.44238 1.23818C2.1962 1.40731 1.71554 1.81492 1.50843 2.03141C0.988707 2.57263 0.582303 3.20857 0.336116 3.86142C0.177853 4.28255 0.101652 4.58868 0.0352211 5.07917C0.00200538 5.31764 5.15179e-05 5.66605 5.15179e-05 10.8127C5.15179e-05 16.8051 -0.00581008 16.4313 0.107514 17.003C0.592072 19.4165 2.92499 21.3192 5.72292 21.5864C5.87337 21.6 6.06875 21.6203 6.15472 21.6287C6.3677 21.6524 18.6223 21.6524 18.8353 21.6287C18.9213 21.6203 19.1167 21.6 19.2671 21.5864C21.8736 21.3378 24.1029 19.66 24.7653 17.4461C24.8552 17.1417 24.9099 16.8896 24.9392 16.6224C24.9529 16.5159 24.9704 16.3721 24.9802 16.3045C25.0076 16.1353 25.0056 5.51553 24.9802 5.33286C24.9704 5.25845 24.947 5.08931 24.9314 4.95908C24.8063 3.96966 24.3413 2.99208 23.6125 2.17517C23.4073 1.94515 22.9697 1.54769 22.7254 1.36841C21.811 0.696957 20.7208 0.25214 19.5875 0.0914643C18.9662 0.00182438 19.3863 0.00689834 12.5321 0.00182438C9.04449 -0.00155826 6.18794 0.000133064 6.18208 0.0035157ZM19.0737 1.86566C20.1444 1.98743 21.135 2.44747 21.8306 3.15106C22.364 3.69059 22.6961 4.30623 22.8446 5.03688C22.8779 5.20771 22.8798 5.44956 22.8798 10.8297V16.4448L22.8349 16.6613C22.6668 17.4647 22.2565 18.1531 21.6098 18.7112C20.9709 19.266 20.1952 19.6144 19.2554 19.7717L19.0307 19.8089L12.6416 19.8156C7.94642 19.819 6.19576 19.8156 6.03749 19.8021C4.19109 19.6364 2.65731 18.4676 2.23136 16.9015C2.11413 16.4719 2.11999 16.822 2.11999 10.8297C2.11999 5.99924 2.1239 5.31933 2.1493 5.14344C2.38572 3.57558 3.71239 2.30202 5.49041 1.93669C5.96325 1.8386 5.57443 1.84367 12.4794 1.84198C18.0909 1.84029 18.8705 1.84367 19.0737 1.86566Z" fill="#FE5000"/>
<path id="Vector_2" d="M19.0599 3.65151C18.5519 3.76483 18.1494 4.12 18.0322 4.55636C17.9892 4.71873 17.9931 4.97919 18.042 5.14325C18.1553 5.5238 18.4972 5.85022 18.9212 5.98384C19.4526 6.15128 20.0056 6.04473 20.4081 5.69631C20.6914 5.45276 20.8184 5.18553 20.8184 4.83712C20.8184 4.5496 20.7285 4.31281 20.5351 4.09125C20.201 3.7107 19.5972 3.52973 19.0599 3.65151Z" fill="#FE5000"/>
<path id="Vector_3" d="M12.0847 5.4713C10.4141 5.57954 8.89011 6.24085 7.80767 7.32837C6.49858 8.64421 6.00425 10.4218 6.47904 12.1063C6.6881 12.8488 7.09255 13.5626 7.64941 14.1698C7.85847 14.3981 8.3821 14.853 8.64588 15.0323C9.53488 15.6429 10.5665 16.0217 11.6959 16.1571C12.0163 16.196 12.665 16.2078 13.0049 16.1841C14.7595 16.0556 16.3089 15.33 17.4109 14.119C18.1358 13.3224 18.5871 12.3161 18.6907 11.2624C18.718 10.9681 18.7044 10.4066 18.6594 10.1292C18.5031 9.15161 18.0655 8.25859 17.3601 7.48904C17.153 7.26072 16.6274 6.80575 16.3656 6.62816C15.2402 5.85861 13.8666 5.44762 12.4579 5.46284C12.3016 5.46453 12.1335 5.46792 12.0847 5.4713ZM13.1163 7.1085C14.4098 7.27086 15.5665 7.93555 16.2288 8.90129C16.645 9.5051 16.8404 10.1157 16.8404 10.8209C16.8423 11.2505 16.7994 11.5093 16.6645 11.9068C16.223 13.2142 14.9197 14.2459 13.3742 14.5148C12.9229 14.5926 12.3055 14.6078 11.8893 14.552C10.4258 14.3558 9.22422 13.5879 8.58921 12.4446C8.29809 11.9186 8.16913 11.4231 8.16913 10.8294C8.16913 10.2239 8.30004 9.73004 8.6068 9.18882C9.03665 8.42434 9.72636 7.82731 10.6095 7.45522C11.1175 7.24042 11.6412 7.11695 12.2117 7.07636C12.3914 7.06452 12.9033 7.08144 13.1163 7.1085Z" fill="#FE5000"/>
</g>
</g>
</svg>
