<svg width="237" height="229" viewBox="0 0 237 229" fill="none" xmlns="http://www.w3.org/2000/svg">
<g id="&#208;&#183;&#208;&#178;&#208;&#181;&#208;&#183;&#208;&#180;&#208;&#176; &#208;&#188;&#208;&#176;&#208;&#187;&#208;&#181;&#208;&#189;&#209;&#140;&#208;&#186;&#208;&#176;&#209;&#143;">
<g id="Group 377">
<g id="Group 355">
<path id="Vector 41" d="M116.554 42.6166L73.9373 0V69.8296L116.554 112.446V42.6166Z" fill="#FE5000" fill-opacity="0.06"/>
<path id="Vector 47" d="M116.554 186.383L73.9373 229V159.17L116.554 116.554V186.383Z" fill="#FE5000" fill-opacity="0.06"/>
<path id="Vector 42" d="M120.661 42.6166L163.278 0V69.8296L120.661 112.446V42.6166Z" fill="#FE5000" fill-opacity="0.06"/>
<path id="Vector 48" d="M120.661 186.383L163.278 229V159.17L120.661 116.554V186.383Z" fill="#FE5000" fill-opacity="0.06"/>
<path id="Vector 43" d="M166.359 69.8298L123.742 112.446L193.572 112.446L236.188 69.8298L166.359 69.8298Z" fill="#FE5000" fill-opacity="0.06"/>
<path id="Vector 45" d="M166.359 159.17L123.742 116.554L193.572 116.554L236.188 159.17L166.359 159.17Z" fill="#FE5000" fill-opacity="0.06"/>
<path id="Vector 44" d="M69.8296 69.8298L112.446 112.446L42.6166 112.446L2.01069e-05 69.8298L69.8296 69.8298Z" fill="#FE5000" fill-opacity="0.06"/>
<path id="Vector 46" d="M69.8296 159.17L112.446 116.554L42.6166 116.554L2.01069e-05 159.17L69.8296 159.17Z" fill="#FE5000" fill-opacity="0.06"/>
</g>
</g>
</g>
</svg>
