<svg width="200" height="125" viewBox="0 0 200 125" fill="none" xmlns="http://www.w3.org/2000/svg">
<g id="Logo_1 1" clip-path="url(#clip0_403_203)">
<g id="Clip path group">
<mask id="mask0_403_203" style="mask-type:luminance" maskUnits="userSpaceOnUse" x="0" y="0" width="200" height="125">
<g id="clip0_367_66">
<path id="Vector" d="M200 0H0V124.286H200V0Z" fill="white"/>
</g>
</mask>
<g mask="url(#mask0_403_203)">
<g id="Group">
<path id="Vector_2" d="M61.9112 54.6227C63.2802 53.2223 65.0787 52.5363 67.3611 52.5363C68.0635 52.5316 68.7635 52.6192 69.4432 52.7972C70.166 52.9689 70.8378 53.3103 71.403 53.7935C71.6894 54.0029 71.9217 54.2777 72.0805 54.5953C72.2394 54.9129 72.3204 55.2639 72.3165 55.619V57.2335H69.3468V56.4693C69.3468 55.7965 68.3267 55.3922 67.3611 55.3922C66.8157 55.3767 66.2731 55.4765 65.7685 55.685C65.2641 55.8935 64.8091 56.206 64.4331 56.6023C63.666 57.4397 63.2593 58.5465 63.301 59.6825C63.301 60.9996 63.7044 62.0506 64.5372 62.8122C65.3848 63.549 66.4763 63.9425 67.598 63.9155C69.3964 63.9155 70.9814 62.7313 71.4654 62.2462L71.6528 62.0585L73.0478 64.4266C72.9411 64.5622 72.8318 64.7213 72.0823 65.2873C71.7245 65.5785 71.3371 65.831 70.9267 66.041C69.7968 66.5937 68.5584 66.8877 67.3013 66.9017C65.0734 66.9017 63.275 66.2287 61.9034 64.8569C60.5318 63.485 59.863 61.7612 59.863 59.7165C59.8382 58.772 60.0072 57.8327 60.3595 56.9566C60.7118 56.0803 61.24 55.286 61.9112 54.6227Z" fill="#11A0D6"/>
<path id="Vector_3" d="M76.033 54.547C77.3475 53.2012 79.013 52.5283 81.0796 52.5283C82.9873 52.5283 84.4629 53.1465 85.5378 54.3853C86.6128 55.6242 87.1489 57.1577 87.1489 59.0407C87.1443 59.4376 87.1086 59.8336 87.0422 60.2249H77.5895C77.8055 62.593 79.5492 63.9909 81.7251 63.9909C83.0939 63.9909 84.3823 63.4693 85.6445 62.4835L86.9875 64.9325C85.6185 66.1426 83.4973 66.8963 81.4829 66.8963C79.2812 66.8963 77.5088 66.1973 76.1398 64.8255C75.4726 64.1557 74.9479 63.3576 74.5972 62.4789C74.2465 61.6003 74.0772 60.6596 74.0993 59.7136C74.0993 57.5872 74.7439 55.865 76.033 54.547ZM83.7395 58.1515C83.7133 56.2945 82.5839 55.1103 81.0015 55.1103C79.2838 55.1103 78.0215 56.2945 77.6988 58.1515H83.7395Z" fill="#11A0D6"/>
<path id="Vector_4" d="M88.4893 66.5707V63.7018H89.1061C89.401 63.7018 89.5624 63.5401 89.5901 63.2167L90.5297 52.8574H94.3425L97.2964 59.988L97.9133 61.6571H97.968L98.5847 59.988L101.539 52.8574H105.378L106.317 63.2167C106.343 63.5401 106.505 63.7018 106.773 63.7018H107.389V66.5707H104.865C103.824 66.5707 103.496 66.1143 103.415 65.118L102.96 59.3594L102.905 56.9391H102.861C102.638 57.6429 102.377 58.3341 102.08 59.0099L99.4488 64.8494H96.3023L93.7777 59.0099L93.0515 56.9234H92.997C92.997 57.9458 92.971 58.7491 92.9423 59.3724L92.4868 65.1311C92.4061 66.1274 92.0574 66.5839 91.0085 66.5839L88.4893 66.5707Z" fill="#11A0D6"/>
<path id="Vector_5" d="M110.611 54.547C111.925 53.2012 113.591 52.5283 115.657 52.5283C117.565 52.5283 119.04 53.1465 120.113 54.3853C121.185 55.6242 121.724 57.1577 121.724 59.0407C121.719 59.4376 121.683 59.8336 121.617 60.2249H112.169C112.383 62.593 114.129 63.9909 116.305 63.9909C117.674 63.9909 118.962 63.4693 120.225 62.4835L121.568 64.9325C120.199 66.1426 118.077 66.8963 116.063 66.8963C113.861 66.8963 112.089 66.1973 110.72 64.8255C110.053 64.1557 109.528 63.3576 109.177 62.4789C108.827 61.6003 108.657 60.6596 108.679 59.7136C108.678 57.5872 109.321 55.865 110.611 54.547ZM118.317 58.1515C118.291 56.2945 117.161 55.1103 115.579 55.1103C113.861 55.1103 112.599 56.2945 112.276 58.1515H118.317Z" fill="#11A0D6"/>
<path id="Vector_6" d="M124.761 66.5711V56.3472C124.773 56.2668 124.766 56.1847 124.74 56.1074C124.715 56.0302 124.672 55.9599 124.614 55.9025C124.557 55.8449 124.487 55.8017 124.41 55.7761C124.333 55.7505 124.251 55.7434 124.17 55.7552H123.129V52.8498H126.135C127.397 52.8498 127.934 53.3871 127.934 54.6521V60.2751C127.94 60.8412 127.914 61.4074 127.853 61.9704H127.908C128.213 61.3731 128.572 60.8055 128.982 60.2751L134.029 52.8498H137.412V63.0997C137.412 63.5039 137.6 63.6917 137.977 63.6917H139.036V66.5607H136.038C134.776 66.5607 134.216 66.0234 134.216 64.7584V59.1718C134.216 58.6868 134.243 58.1217 134.297 57.4765H134.242C134.189 57.6105 133.842 58.1755 133.201 59.1718L128.152 66.5711H124.761ZM126.64 47.4668H129.243V47.8162C129.136 50.0488 132.92 50.0775 132.868 47.7901V47.4668H135.445V47.8162C135.46 48.3405 135.35 48.8608 135.124 49.3337C134.898 49.8065 134.561 50.2181 134.143 50.5338C133.234 51.1815 132.145 51.5295 131.029 51.5295C129.913 51.5295 128.825 51.1815 127.915 50.5338C127.498 50.2181 127.161 49.8065 126.935 49.3337C126.708 48.8608 126.598 48.3405 126.614 47.8162L126.64 47.4668Z" fill="#11A0D6"/>
<path id="Vector_7" d="M141.808 66.5727V56.349C141.82 56.2686 141.813 56.1864 141.787 56.1091C141.762 56.0318 141.719 55.9617 141.661 55.9041C141.604 55.8467 141.534 55.8034 141.457 55.7778C141.38 55.7523 141.298 55.7451 141.217 55.757H140.145V52.8516H143.393C144.694 52.8516 145.214 53.4176 145.214 54.6773V58.2007H151.043V52.8516H154.451V63.1013C154.44 63.1818 154.447 63.264 154.473 63.3411C154.498 63.4184 154.541 63.4886 154.598 63.5461C154.656 63.6037 154.726 63.647 154.803 63.6726C154.88 63.6981 154.961 63.7053 155.043 63.6934H156.117V66.5623H152.868C151.568 66.5623 151.047 66.025 151.047 64.7366V61.0018H145.217V66.5727H141.808Z" fill="#11A0D6"/>
<path id="Vector_8" d="M158.83 56.349C158.841 56.2686 158.834 56.1864 158.81 56.1091C158.784 56.0318 158.74 55.9617 158.683 55.9041C158.626 55.8467 158.556 55.8034 158.479 55.7778C158.401 55.7523 158.32 55.7451 158.24 55.757H157.164V52.8516H160.441C161.649 52.8516 162.24 53.3731 162.24 54.4164V57.5904H164.683C167.986 57.5904 169.81 59.3926 169.81 62.0841C169.81 64.9087 167.69 66.5778 164.683 66.5778H160.309C159.267 66.5778 158.833 66.1737 158.833 65.1251L158.83 56.349ZM162.24 63.722C162.24 64.0716 162.401 64.2437 162.724 64.2437H164.2C165.569 64.2437 166.401 63.383 166.401 62.092C166.401 60.801 165.594 59.9664 164.2 59.9664H162.24V63.722ZM171.719 52.8516H175.127V63.1013C175.116 63.1818 175.123 63.264 175.149 63.3411C175.174 63.4184 175.217 63.4886 175.274 63.5461C175.331 63.6037 175.401 63.647 175.479 63.6726C175.556 63.6981 175.639 63.7053 175.719 63.6934H176.791V66.5623H173.543C172.241 66.5623 171.721 66.025 171.721 64.7366L171.719 52.8516Z" fill="#11A0D6"/>
<path id="Vector_9" d="M179.527 66.5711V56.3472C179.539 56.2668 179.531 56.1847 179.507 56.1074C179.481 56.0302 179.437 55.9599 179.38 55.9025C179.323 55.8449 179.253 55.8017 179.176 55.7761C179.099 55.7505 179.017 55.7434 178.937 55.7552H177.896V52.8498H180.901C182.164 52.8498 182.7 53.3871 182.7 54.6521V60.2751C182.707 60.8412 182.68 61.4074 182.619 61.9704H182.674C182.979 61.3731 183.339 60.8055 183.749 60.2751L188.796 52.8498H192.179V63.0997C192.179 63.5039 192.366 63.6917 192.743 63.6917H193.816V66.5607H190.804C189.543 66.5607 188.983 66.0234 188.983 64.7584V59.1718C188.983 58.6868 189.01 58.1217 189.063 57.4765H189.006C188.953 57.6105 188.606 58.1755 187.964 59.1718L182.916 66.5711H179.527ZM181.406 47.4668H184.009V47.8162C183.903 50.0488 187.687 50.0775 187.634 47.7901V47.4668H190.211V47.8162C190.227 48.3405 190.117 48.8608 189.89 49.3337C189.664 49.8065 189.327 50.2181 188.91 50.5338C188 51.1815 186.911 51.5295 185.796 51.5295C184.68 51.5295 183.591 51.1815 182.681 50.5338C182.264 50.2181 181.927 49.8065 181.701 49.3337C181.474 48.8608 181.364 48.3405 181.38 47.8162L181.406 47.4668Z" fill="#11A0D6"/>
<path id="Vector_10" d="M61.4922 92.8057V82.582C61.5041 82.5016 61.4969 82.4195 61.4715 82.3422C61.4459 82.265 61.4028 82.1947 61.3453 82.1373C61.2879 82.0797 61.2179 82.0365 61.1408 82.0109C61.0638 81.9853 60.9818 81.9782 60.9015 81.99H59.8604V79.082H62.8665C64.1286 79.082 64.6648 79.6193 64.6648 80.8842V86.5073C64.6716 87.0735 64.6446 87.6396 64.5842 88.2026H64.6388C64.9438 87.6053 65.3036 87.0377 65.7136 86.5073L70.7628 79.082H74.1461V89.3319C74.1461 89.736 74.3335 89.9239 74.7108 89.9239H75.7858V92.7927H72.7693C71.5071 92.7927 70.9475 92.2555 70.9475 90.9906V85.4066C70.9475 84.9216 70.9745 84.3565 71.0282 83.7115H70.9735C70.9198 83.847 70.5728 84.4122 69.9325 85.4066L64.8835 92.8057H61.4922Z" fill="#11A0D6"/>
<path id="Vector_11" d="M78.542 92.8057V82.582C78.5539 82.5016 78.5468 82.4195 78.5213 82.3422C78.4958 82.265 78.4526 82.1947 78.3952 82.1373C78.3377 82.0797 78.2677 82.0365 78.1906 82.0109C78.1136 81.9853 78.0316 81.9782 77.9513 81.99H76.8765V79.082H80.1245C81.4258 79.082 81.9463 79.648 81.9463 80.9077V84.4339H87.7736V79.082H91.183V89.3319C91.1712 89.4123 91.1783 89.4945 91.2038 89.5717C91.2293 89.6489 91.2725 89.7192 91.3299 89.7766C91.3873 89.8342 91.4573 89.8775 91.5345 89.903C91.6115 89.9286 91.6935 89.9357 91.7738 89.9239H92.8486V92.7927H89.6032C88.3019 92.7927 87.7813 92.2555 87.7813 90.967V87.2453H81.9515V92.8162L78.542 92.8057Z" fill="#11A0D6"/>
<path id="Vector_12" d="M95.5889 92.8057V82.582C95.6008 82.5016 95.5936 82.4195 95.5681 82.3422C95.5426 82.265 95.4994 82.1947 95.4421 82.1373C95.3846 82.0797 95.3146 82.0365 95.2375 82.0109C95.1603 81.9853 95.0785 81.9782 94.9981 81.99H93.9258V79.082H97.1739C98.4752 79.082 98.9958 79.648 98.9958 80.9077V84.2435H99.9092C100.552 84.2435 100.981 84.0556 101.223 83.6775L104.128 79.082H107.886L104.315 84.559C104.089 84.9466 103.788 85.2852 103.431 85.5553L103.295 85.6362V85.6909C103.699 85.8266 104.076 86.2126 104.422 86.768L105.984 89.4049C106.171 89.7543 106.548 89.9265 107.111 89.9265H107.969V92.7953H105.445C104.263 92.7953 103.834 92.5789 103.298 91.6113L101.122 87.6287C100.935 87.2793 100.531 87.1072 99.9405 87.1072H99.0009V92.7849L95.5889 92.8057Z" fill="#11A0D6"/>
<path id="Vector_13" d="M108.906 89.8717C109.846 89.8456 110.572 89.1727 111.053 87.9077C111.535 86.6429 111.806 85.0025 111.806 83.0385V81.9953H110.14V79.082H119.77C121.032 79.082 121.568 79.648 121.568 80.9077V89.3319C121.556 89.4123 121.563 89.4945 121.589 89.5717C121.614 89.6489 121.657 89.7192 121.715 89.7766C121.772 89.8342 121.842 89.8775 121.919 89.903C121.996 89.9286 122.078 89.9357 122.159 89.9239H123.234V92.7928H119.996C118.734 92.7928 118.198 92.2555 118.198 90.967V82.5795C118.209 82.499 118.202 82.4169 118.177 82.3396C118.151 82.2623 118.108 82.1922 118.051 82.1346C117.993 82.0772 117.923 82.0339 117.846 82.0083C117.769 81.9827 117.687 81.9756 117.607 81.9875H115.033V83.0725C115.033 85.4666 114.773 87.4592 113.932 89.53C113.091 91.6009 111.381 92.9206 108.911 92.8919L108.906 89.8717Z" fill="#11A0D6"/>
<path id="Vector_14" d="M125.982 92.8073V82.5836C125.994 82.5032 125.987 82.421 125.961 82.3437C125.936 82.2665 125.893 82.1963 125.835 82.1388C125.778 82.0813 125.708 82.038 125.631 82.0125C125.554 81.9869 125.472 81.9797 125.391 81.9916H124.319V79.0836H127.567C128.869 79.0836 129.389 79.6495 129.389 80.9092V84.5423H131.731C131.941 82.9067 132.767 81.4136 134.04 80.3693C135.344 79.2882 136.994 78.7149 138.686 78.7549C140.752 78.7549 142.498 79.4277 143.891 80.7996C145.283 82.1715 146.004 83.8746 146.004 85.9429C146.004 88.011 145.307 89.735 143.883 91.1095C142.459 92.4839 140.742 93.1282 138.678 93.1282C136.956 93.1755 135.275 92.5922 133.951 91.4876C132.67 90.3857 131.854 88.8373 131.669 87.1556H129.386V92.8073H125.982ZM141.447 89.0412C142.197 88.188 142.591 87.0789 142.548 85.9429C142.548 84.6787 142.172 83.6565 141.421 82.8757C141.081 82.4852 140.659 82.1743 140.186 81.9652C139.713 81.756 139.2 81.6537 138.683 81.6656C138.162 81.656 137.645 81.7593 137.168 81.9682C136.69 82.177 136.264 82.4865 135.916 82.8757C135.164 83.7149 134.768 84.8155 134.813 85.9429C134.771 87.077 135.165 88.1842 135.914 89.036C136.266 89.4169 136.695 89.7192 137.171 89.9232C137.648 90.1272 138.162 90.2283 138.68 90.22C139.199 90.2317 139.714 90.1325 140.191 89.9287C140.668 89.725 141.096 89.4215 141.447 89.0386V89.0412Z" fill="#11A0D6"/>
<path id="Vector_15" d="M148.694 88.931C149.797 89.9535 150.979 90.4646 152.24 90.4646C153.663 90.4646 154.603 89.7656 154.603 88.5816C154.603 87.4783 153.85 86.9125 152.346 86.9125H150.574V84.6799H151.889C153.419 84.6799 154.17 84.0879 154.17 82.8778C154.17 81.7745 153.39 81.2372 152.211 81.2372C151.217 81.2372 150.306 81.5868 150.306 82.4213V82.9872H147.566V81.6128C147.566 80.6712 148.02 79.9723 148.963 79.4872C150.053 78.9718 151.249 78.7223 152.453 78.7595C155.649 78.7595 157.554 80.1313 157.554 82.5256C157.554 84.1139 156.696 85.1623 155.62 85.5666V85.6215C156.99 86.0256 157.963 87.1002 157.963 88.8502C157.987 89.4642 157.857 90.0746 157.584 90.6249C157.311 91.1752 156.904 91.6475 156.401 91.9982C155.36 92.7519 154.059 93.1275 152.481 93.1275C150.53 93.1322 148.647 92.4132 147.193 91.1088L148.694 88.931Z" fill="#11A0D6"/>
<path id="Vector_16" d="M161.017 92.8057V82.582C161.029 82.5016 161.021 82.4195 160.997 82.3422C160.971 82.265 160.927 82.1947 160.87 82.1373C160.813 82.0797 160.743 82.0365 160.666 82.0109C160.589 81.9853 160.507 81.9782 160.427 81.99H159.386V79.082H162.391C163.654 79.082 164.19 79.6193 164.19 80.8842V86.5073C164.197 87.0735 164.17 87.6396 164.109 88.2026H164.164C164.469 87.6052 164.829 87.0376 165.239 86.5073L170.286 79.082H173.669V89.3319C173.669 89.736 173.856 89.9239 174.233 89.9239H175.306V92.7927H172.289C171.027 92.7927 170.467 92.2555 170.467 90.9906V85.4066C170.467 84.9216 170.494 84.3565 170.549 83.7115H170.496C170.443 83.847 170.096 84.4122 169.454 85.4066L164.406 92.8057H161.017Z" fill="#11A0D6"/>
<path id="Vector_17" d="M178.04 81.9875H176.374V79.082H184.374C187.193 79.082 188.966 80.3862 188.966 82.6343C188.966 84.0609 188.24 85.1355 187.193 85.5945V85.6492C187.891 85.8242 188.51 86.233 188.944 86.8077C189.38 87.3826 189.606 88.089 189.586 88.8102C189.586 91.4183 187.519 92.7927 184.484 92.7927H179.49C178.449 92.7927 178.04 92.3363 178.04 91.34V81.9875ZM181.449 84.705H183.651C184.859 84.705 185.556 84.0062 185.556 83.0099C185.556 81.9327 184.884 81.3955 183.57 81.3955H181.449V84.705ZM181.449 90.0047C181.449 90.3282 181.61 90.4899 181.904 90.4899H183.89C185.366 90.4899 186.119 89.7909 186.119 88.6329C186.119 87.4749 185.311 86.8307 183.89 86.8307H181.447L181.449 90.0047Z" fill="#11A0D6"/>
<path id="Vector_18" d="M191.92 86.6162V83.6299H200.001V86.6162H191.92Z" fill="#11A0D6"/>
<path id="Vector_19" d="M65.0891 118.891V108.073H63.2438C63.1635 108.061 63.0815 108.068 63.0045 108.094C62.9273 108.119 62.8573 108.162 62.7999 108.22C62.7425 108.277 62.6993 108.348 62.6738 108.425C62.6483 108.502 62.6412 108.584 62.6531 108.665V109.447H59.8604V106.972C59.8604 105.668 60.3965 105.17 61.6822 105.17H71.8845C73.1858 105.17 73.7064 105.692 73.7064 106.972V109.447H70.9136V108.665C70.9255 108.584 70.9183 108.502 70.8929 108.425C70.8673 108.348 70.8242 108.277 70.7668 108.22C70.7093 108.162 70.6393 108.119 70.5622 108.094C70.4852 108.068 70.4032 108.061 70.3229 108.073H68.5011V118.888L65.0891 118.891Z" fill="#11A0D6"/>
<path id="Vector_20" d="M76.9024 106.862C78.2167 105.517 79.8824 104.844 81.9488 104.844C83.8539 104.844 85.3322 105.462 86.4045 106.701C87.4767 107.94 88.0155 109.473 88.0155 111.356C88.0107 111.753 87.9751 112.149 87.9088 112.54H78.4587C78.6747 114.908 80.4184 116.306 82.5942 116.306C83.9632 116.306 85.2515 115.785 86.5138 114.799L87.8567 117.248C86.4878 118.458 84.3667 119.212 82.3522 119.212C80.1504 119.212 78.3779 118.513 77.0091 117.138C76.3395 116.47 75.8122 115.672 75.4592 114.793C75.1062 113.915 74.9349 112.973 74.9555 112.026C74.9555 109.903 75.6045 108.182 76.9024 106.862ZM84.6061 110.462C84.5801 108.605 83.4505 107.421 81.8681 107.421C80.1504 107.421 78.8881 108.605 78.5654 110.462H84.6061Z" fill="#11A0D6"/>
<path id="Vector_21" d="M91.722 111.437C92.3908 111.089 93.1046 110.835 93.8432 110.684C95.0893 110.373 96.3725 110.237 97.6559 110.279H98.0853V110.092C98.0853 108.235 97.3046 107.483 95.5609 107.483C94.702 107.483 93.739 107.726 93.739 108.399V109.127H90.5405V107.671C90.5405 106.487 91.3732 105.653 92.5549 105.303C93.5023 105.004 94.4895 104.851 95.4828 104.847C99.8603 104.847 101.497 106.865 101.497 110.308V115.417C101.486 115.498 101.493 115.58 101.518 115.657C101.544 115.734 101.587 115.805 101.644 115.862C101.702 115.92 101.772 115.963 101.849 115.988C101.926 116.014 102.008 116.021 102.088 116.009H103.163V118.878H100.071C98.9156 118.878 98.3535 118.357 98.3535 117.371V116.779H98.2988C98.3535 116.779 97.0912 119.202 94.0565 119.202C92.8868 119.232 91.7442 118.846 90.8319 118.111C90.4022 117.745 90.0616 117.286 89.8362 116.768C89.6106 116.25 89.506 115.687 89.5306 115.123C89.525 114.366 89.7263 113.623 90.1126 112.973C90.499 112.324 91.0556 111.792 91.722 111.437ZM94.97 116.604C95.4042 116.606 95.8326 116.505 96.22 116.309C96.6075 116.112 96.9426 115.827 97.1979 115.475C97.7863 114.785 98.1102 113.907 98.1113 113V112.624H97.4946C94.4339 112.624 92.9036 113.352 92.9036 114.776C92.914 115.769 93.6818 116.604 94.97 116.604Z" fill="#11A0D6"/>
<path id="Vector_22" d="M108.959 118.891V108.073H107.105C107.025 108.061 106.943 108.068 106.866 108.094C106.789 108.119 106.719 108.162 106.662 108.22C106.604 108.277 106.561 108.348 106.536 108.425C106.51 108.502 106.503 108.584 106.515 108.665V109.447H103.722V106.972C103.722 105.668 104.258 105.17 105.544 105.17H115.746C117.047 105.17 117.568 105.692 117.568 106.972V109.447H114.775V108.665C114.787 108.584 114.78 108.502 114.755 108.425C114.729 108.348 114.686 108.277 114.628 108.22C114.571 108.162 114.501 108.119 114.424 108.094C114.347 108.068 114.265 108.061 114.185 108.073H112.363V118.888L108.959 118.891Z" fill="#11A0D6"/>
<path id="Vector_23" d="M120.259 124.284V108.665C120.271 108.584 120.264 108.502 120.239 108.425C120.213 108.347 120.17 108.277 120.113 108.22C120.055 108.162 119.985 108.119 119.908 108.093C119.831 108.068 119.749 108.061 119.669 108.073H118.594V105.167H121.654C122.81 105.167 123.372 105.597 123.372 106.487V107.024H123.427C123.594 106.744 123.802 106.49 124.044 106.27C124.66 105.597 125.865 104.899 127.776 104.844C129.629 104.844 131.078 105.517 132.179 106.834C133.28 108.151 133.845 109.901 133.845 112.026C133.845 114.152 133.254 115.939 132.073 117.243C130.891 118.547 129.415 119.206 127.588 119.206C125.506 119.206 124.15 118.077 123.802 117.592L123.666 117.404H123.625C123.651 117.728 123.679 118.132 123.679 118.588V124.284H120.259ZM124.447 115.109C124.732 115.51 125.112 115.833 125.553 116.049C125.993 116.265 126.481 116.368 126.972 116.348C128.931 116.348 130.41 114.708 130.41 112.097C130.41 109.486 129.041 107.791 127.026 107.791C125.066 107.791 123.562 109.244 123.562 112.123C123.538 113.183 123.848 114.224 124.45 115.096L124.447 115.109Z" fill="#11A0D6"/>
<path id="Vector_24" d="M44.5176 60.9705V52.0508H0V60.9731C0.338339 61.0592 5.57219 62.3685 5.7934 62.4362C8.01864 63.1222 9.53856 64.5462 9.53856 66.7995V104.22C9.53856 106.474 8.01864 107.898 5.7934 108.584C5.57479 108.651 0.327929 109.963 0 110.047V118.969H44.5203V110.047C44.1819 109.961 38.948 108.651 38.7269 108.584C36.5016 107.898 34.9817 106.474 34.9817 104.22V66.7969C34.9817 64.5436 36.5016 63.1195 38.7269 62.4336C38.9454 62.3658 44.1793 61.0565 44.5176 60.9705Z" fill="#11A0D6"/>
<path id="Vector_25" d="M22.2601 44.6139C34.554 44.6139 44.5203 34.6267 44.5203 22.307C44.5203 9.98716 34.554 0 22.2601 0C9.96619 0 0 9.98716 0 22.307C0 34.6267 9.96619 44.6139 22.2601 44.6139Z" fill="#11A0D6"/>
</g>
</g>
</g>
</g>
<defs>
<clipPath id="clip0_403_203">
<rect width="200" height="124.286" fill="white"/>
</clipPath>
</defs>
</svg>
